<svg xmlns="http://www.w3.org/2000/svg" xmlns:xlink="http://www.w3.org/1999/xlink" width="40" zoomAndPan="magnify" viewBox="0 0 30 30.000001" height="40" preserveAspectRatio="xMidYMid meet" version="1.0"><defs><clipPath id="914bfb4625"><path d="M 0.484375 0 L 29.515625 0 L 29.515625 29.03125 L 0.484375 29.03125 Z M 0.484375 0 " clip-rule="nonzero"/></clipPath></defs><g clip-path="url(#914bfb4625)"><path fill="#eb9b00" d="M 23.023438 0 C 21.695312 0 21.105469 0.410156 20.464844 0.882812 C 19.433594 0.78125 18.253906 1.195312 17.65625 2.289062 C 17.1875 3.144531 16.335938 4.699219 16.230469 5.820312 C 16.21875 5.894531 16.210938 5.964844 16.210938 6.039062 C 16.210938 6.042969 16.210938 6.046875 16.210938 6.046875 C 16.210938 6.207031 16.242188 6.363281 16.300781 6.511719 C 16.363281 6.660156 16.449219 6.789062 16.5625 6.902344 C 16.675781 7.015625 16.808594 7.105469 16.957031 7.164062 C 17.105469 7.226562 17.257812 7.257812 17.417969 7.257812 C 15.699219 12.949219 5.324219 12.121094 5.324219 22.984375 L 5.324219 26.453125 C 4.660156 26.277344 4.164062 25.964844 3.792969 25.554688 C 3.222656 24.921875 2.902344 24.019531 2.902344 22.984375 C 2.90625 22.820312 2.875 22.664062 2.8125 22.511719 C 2.753906 22.359375 2.664062 22.226562 2.546875 22.109375 C 2.433594 21.996094 2.296875 21.90625 2.148438 21.847656 C 1.996094 21.785156 1.839844 21.753906 1.675781 21.757812 C 1.515625 21.761719 1.359375 21.792969 1.214844 21.855469 C 1.066406 21.921875 0.9375 22.007812 0.824219 22.125 C 0.714844 22.238281 0.628906 22.371094 0.570312 22.519531 C 0.511719 22.667969 0.480469 22.824219 0.484375 22.984375 C 0.484375 24.515625 0.960938 26.03125 1.996094 27.175781 C 3.03125 28.324219 4.625 29.03125 6.53125 29.03125 L 8.953125 29.03125 L 8.953125 27.824219 C 8.953125 22.984375 11.371094 21.773438 12.71875 21.085938 C 11.902344 20.527344 11.371094 19.695312 11.371094 18.75 C 11.371094 18.296875 11.5 17.867188 11.714844 17.480469 C 11.558594 16.976562 11.371094 15.6875 11.371094 14.515625 C 12.867188 14.515625 13.980469 15.859375 13.980469 15.859375 C 14.308594 15.78125 14.644531 15.726562 15 15.726562 C 15.355469 15.726562 15.691406 15.78125 16.019531 15.859375 C 16.019531 15.859375 16.867188 14.515625 18.628906 14.515625 C 18.628906 15.6875 18.441406 16.976562 18.285156 17.480469 C 18.5 17.867188 18.628906 18.296875 18.628906 18.75 C 18.628906 19.765625 18.023438 20.65625 17.105469 21.203125 C 17.28125 21.738281 17.417969 23.554688 17.417969 24.195312 C 17.417969 25.335938 17.125 26.511719 16.957031 27.226562 C 17.242188 27.546875 17.417969 27.964844 17.417969 28.425781 L 17.417969 29.03125 L 24.675781 29.03125 C 25.347656 29.03125 25.886719 28.492188 25.886719 27.824219 C 25.886719 27.15625 25.347656 26.613281 24.675781 26.613281 L 24.191406 26.613281 L 22.378906 17.539062 C 23.046875 16.707031 23.46875 15.667969 23.46875 14.515625 C 23.46875 8.441406 23.796875 7.257812 25.5625 7.257812 L 26.492188 7.257812 C 26.820312 7.257812 27.125 7.171875 27.410156 7.007812 C 27.691406 6.839844 27.914062 6.613281 28.074219 6.328125 L 28.078125 6.324219 L 28.109375 6.265625 C 28.109375 6.261719 28.109375 6.261719 28.109375 6.257812 L 29.355469 3.839844 C 29.4375 3.71875 29.488281 3.585938 29.507812 3.441406 C 29.527344 3.296875 29.511719 3.152344 29.460938 3.015625 C 29.410156 2.878906 29.332031 2.757812 29.222656 2.660156 C 29.113281 2.558594 28.988281 2.492188 28.847656 2.453125 L 28.828125 2.445312 C 28.824219 2.445312 28.824219 2.445312 28.820312 2.445312 L 25.886719 1.554688 C 25.886719 1.554688 25.292969 0 23.023438 0 Z M 13.183594 18.144531 C 13.019531 18.144531 12.875 18.203125 12.757812 18.324219 C 12.640625 18.441406 12.582031 18.582031 12.582031 18.75 C 12.582031 18.917969 12.640625 19.058594 12.757812 19.175781 C 12.875 19.296875 13.019531 19.355469 13.183594 19.355469 C 13.351562 19.355469 13.496094 19.296875 13.613281 19.175781 C 13.730469 19.058594 13.789062 18.917969 13.789062 18.75 C 13.789062 18.582031 13.730469 18.441406 13.613281 18.324219 C 13.496094 18.203125 13.351562 18.144531 13.183594 18.144531 Z M 16.816406 18.144531 C 16.648438 18.144531 16.503906 18.203125 16.386719 18.324219 C 16.269531 18.441406 16.210938 18.582031 16.210938 18.75 C 16.210938 18.917969 16.269531 19.058594 16.386719 19.175781 C 16.503906 19.296875 16.648438 19.355469 16.816406 19.355469 C 16.980469 19.355469 17.125 19.296875 17.242188 19.175781 C 17.359375 19.058594 17.417969 18.917969 17.417969 18.75 C 17.417969 18.582031 17.359375 18.441406 17.242188 18.324219 C 17.125 18.203125 16.980469 18.144531 16.816406 18.144531 Z M 16.816406 18.144531 " fill-opacity="1" fill-rule="nonzero"/></g></svg>