<svg xmlns="http://www.w3.org/2000/svg" xmlns:xlink="http://www.w3.org/1999/xlink" width="40" zoomAndPan="magnify" viewBox="0 0 30 30.000001" height="40" preserveAspectRatio="xMidYMid meet" version="1.0"><defs><clipPath id="9312eeb049"><path d="M 0.484375 0 L 29.515625 0 L 29.515625 29.03125 L 0.484375 29.03125 Z M 0.484375 0 " clip-rule="nonzero"/></clipPath></defs><g clip-path="url(#9312eeb049)"><path fill="#002f52" d="M 26.519531 14.710938 C 26.523438 14.570312 26.628906 14.402344 26.753906 14.339844 L 29.285156 13.070312 C 29.410156 13.007812 29.492188 12.84375 29.46875 12.707031 L 28.886719 10.011719 C 28.851562 9.878906 28.707031 9.761719 28.566406 9.753906 L 25.691406 9.566406 C 25.550781 9.554688 25.386719 9.445312 25.324219 9.324219 L 24.933594 8.601562 C 24.863281 8.480469 24.863281 8.285156 24.933594 8.164062 L 26.386719 5.707031 C 26.457031 5.589844 26.441406 5.40625 26.347656 5.300781 L 24.390625 3.296875 C 24.289062 3.203125 24.105469 3.183594 23.984375 3.25 L 21.480469 4.644531 C 21.359375 4.710938 21.164062 4.707031 21.042969 4.636719 L 20.367188 4.25 C 20.246094 4.183594 20.140625 4.015625 20.132812 3.878906 L 20.03125 1 C 20.027344 0.859375 19.914062 0.714844 19.78125 0.671875 L 17.070312 0.0234375 C 16.933594 0 16.765625 0.078125 16.699219 0.203125 L 15.355469 2.714844 C 15.289062 2.835938 15.179688 2.9375 15.109375 2.933594 L 15.042969 2.933594 C 14.652344 2.933594 14.140625 2.972656 14.140625 2.972656 C 14 2.984375 13.820312 2.898438 13.742188 2.785156 L 12.097656 0.410156 C 12.015625 0.292969 11.84375 0.230469 11.707031 0.269531 L 9.121094 1.144531 C 8.992188 1.195312 8.894531 1.351562 8.90625 1.492188 L 9.125 4.316406 C 9.136719 4.453125 9.050781 4.628906 8.933594 4.707031 L 8.109375 5.277344 C 7.996094 5.359375 7.800781 5.386719 7.671875 5.332031 L 5.007812 4.226562 C 4.878906 4.171875 4.695312 4.210938 4.605469 4.316406 L 2.941406 6.382812 C 2.863281 6.496094 2.863281 6.679688 2.949219 6.789062 L 4.648438 9.035156 C 4.730469 9.144531 4.753906 9.339844 4.695312 9.46875 L 4.230469 10.578125 C 4.183594 10.707031 4.03125 10.835938 3.894531 10.859375 L 1.066406 11.371094 C 0.929688 11.394531 0.800781 11.53125 0.777344 11.667969 C 0.777344 11.667969 0.5 13.410156 0.5 14.453125 L 0.5 14.457031 C 0.5 14.464844 0.609375 14.507812 0.738281 14.554688 L 3.378906 15.523438 C 3.507812 15.570312 3.632812 15.722656 3.652344 15.859375 L 3.898438 17.210938 C 3.929688 17.347656 3.871094 17.539062 3.769531 17.632812 L 1.679688 19.585938 C 1.578125 19.679688 1.542969 19.863281 1.597656 19.988281 L 2.738281 22.203125 C 2.808594 22.324219 2.976562 22.398438 3.113281 22.367188 L 5.867188 21.75 C 6 21.71875 6.1875 21.777344 6.28125 21.882812 L 7.292969 22.941406 C 7.394531 23.039062 7.449219 23.226562 7.414062 23.363281 L 6.714844 26.117188 C 6.679688 26.25 6.75 26.421875 6.867188 26.5 L 9.015625 27.710938 C 9.140625 27.773438 9.320312 27.746094 9.417969 27.644531 L 11.414062 25.617188 C 11.511719 25.519531 11.699219 25.46875 11.835938 25.503906 L 13.25 25.820312 C 13.390625 25.84375 13.539062 25.972656 13.582031 26.105469 L 14.46875 28.785156 C 14.515625 28.917969 14.664062 29.027344 14.804688 29.03125 C 14.804688 29.03125 14.878906 29.035156 15.042969 29.035156 C 15.898438 29.035156 17.296875 28.851562 17.296875 28.851562 C 17.4375 28.832031 17.574219 28.707031 17.601562 28.570312 L 18.191406 25.761719 C 18.21875 25.625 18.351562 25.480469 18.484375 25.433594 L 19.730469 24.960938 C 19.859375 24.90625 20.050781 24.933594 20.160156 25.019531 L 22.347656 26.785156 C 22.457031 26.875 22.636719 26.882812 22.753906 26.804688 L 24.808594 25.242188 C 24.914062 25.152344 24.960938 24.972656 24.910156 24.839844 L 23.886719 22.144531 C 23.835938 22.015625 23.867188 21.816406 23.953125 21.707031 L 24.628906 20.78125 C 24.710938 20.667969 24.886719 20.582031 25.023438 20.597656 L 27.824219 20.898438 C 27.960938 20.914062 28.121094 20.824219 28.175781 20.695312 L 29.09375 18.179688 C 29.132812 18.046875 29.074219 17.871094 28.960938 17.785156 L 26.640625 16.066406 C 26.527344 15.984375 26.445312 15.804688 26.460938 15.664062 Z M 15.007812 23.003906 C 10.324219 23.003906 6.53125 19.199219 6.53125 14.507812 C 6.53125 9.8125 10.324219 6.007812 15.007812 6.007812 C 19.6875 6.007812 23.480469 9.8125 23.480469 14.507812 C 23.480469 19.199219 19.6875 23.003906 15.007812 23.003906 Z M 15.007812 23.003906 " fill-opacity="1" fill-rule="nonzero"/></g></svg>