<svg xmlns="http://www.w3.org/2000/svg" xmlns:xlink="http://www.w3.org/1999/xlink" width="40" zoomAndPan="magnify" viewBox="0 0 30 30.000001" height="40" preserveAspectRatio="xMidYMid meet" version="1.0"><defs><clipPath id="2e1ec520ae"><path d="M 22 0 L 29.515625 0 L 29.515625 7 L 22 7 Z M 22 0 " clip-rule="nonzero"/></clipPath><clipPath id="654cc270a2"><path d="M 0.484375 4 L 24 4 L 24 27.582031 L 0.484375 27.582031 Z M 0.484375 4 " clip-rule="nonzero"/></clipPath></defs><g clip-path="url(#2e1ec520ae)"><path fill="#002f52" d="M 28.945312 3.042969 L 26.363281 0.488281 C 26.097656 0.226562 25.746094 0.09375 25.394531 0.09375 C 25.046875 0.09375 24.695312 0.226562 24.429688 0.488281 L 22.363281 2.527344 L 26.878906 6.992188 L 28.945312 4.953125 C 29.480469 4.425781 29.480469 3.570312 28.945312 3.042969 Z M 28.945312 3.042969 " fill-opacity="1" fill-rule="nonzero"/></g><path fill="#002f52" d="M 8.953125 15.777344 L 13.46875 20.242188 L 25.914062 7.949219 L 21.394531 3.484375 Z M 8.953125 15.777344 " fill-opacity="1" fill-rule="nonzero"/><path fill="#002f52" d="M 7.976562 16.734375 L 7.011719 22.148438 L 12.496094 21.195312 Z M 7.976562 16.734375 " fill-opacity="1" fill-rule="nonzero"/><g clip-path="url(#654cc270a2)"><path fill="#002f52" d="M 20.464844 24.5625 L 3.433594 24.5625 L 3.433594 7.703125 L 15.453125 7.703125 L 18.414062 4.773438 L 2.386719 4.773438 C 1.335938 4.773438 0.476562 5.625 0.476562 6.667969 L 0.476562 25.59375 C 0.476562 26.636719 1.335938 27.488281 2.386719 27.488281 L 21.507812 27.488281 C 22.5625 27.488281 23.421875 26.636719 23.421875 25.59375 L 23.421875 12.0625 L 20.464844 14.984375 Z M 20.464844 24.5625 " fill-opacity="1" fill-rule="nonzero"/></g></svg>